<svg id="svg" xmlns="http://www.w3.org/2000/svg" xmlns:xlink="http://www.w3.org/1999/xlink" width="400" height="181.8181818181818" viewBox="0, 0, 400,181.8181818181818"><g id="svgg"><path id="path0" d="M33.717 57.318 L 29.252 61.212 32.679 75.152 L 36.107 89.091 36.538 75.216 L 36.970 61.342 52.121 57.452 L 67.273 53.562 52.727 53.493 L 38.182 53.424 33.717 57.318 M156.228 55.151 C 144.497 61.527,150.613 79.286,164.321 78.651 C 167.907 78.485,171.502 78.983,172.461 79.779 C 174.761 81.688,179.377 77.073,177.272 74.969 C 176.346 74.043,176.305 72.657,177.139 70.465 C 181.482 59.041,167.675 48.930,156.228 55.151 M191.515 62.867 C 191.515 75.465,193.782 78.788,202.378 78.788 C 211.928 78.788,213.848 76.364,214.371 63.651 L 214.802 53.148 211.423 53.543 C 208.116 53.931,208.042 54.112,207.961 61.935 C 207.851 72.652,204.312 76.866,199.481 72.035 C 198.115 70.670,197.576 67.750,197.576 61.732 C 197.576 53.582,197.486 53.333,194.545 53.333 C 191.570 53.333,191.515 53.506,191.515 62.867 M229.091 66.061 L 229.091 78.788 238.788 78.788 C 248.323 78.788,248.485 78.737,248.485 75.758 C 248.485 72.893,248.121 72.727,241.818 72.727 C 236.700 72.727,235.152 72.305,235.152 70.909 C 235.152 69.535,236.633 69.091,241.212 69.091 C 246.869 69.091,247.273 68.889,247.273 66.061 C 247.273 63.232,246.869 63.030,241.212 63.030 C 236.633 63.030,235.152 62.586,235.152 61.212 C 235.152 59.816,236.700 59.394,241.818 59.394 C 248.121 59.394,248.485 59.229,248.485 56.364 C 248.485 53.384,248.323 53.333,238.788 53.333 L 229.091 53.333 229.091 66.061 M263.030 66.061 L 263.030 78.788 270.606 78.770 C 282.339 78.742,288.554 73.198,283.576 67.199 C 282.451 65.844,282.461 65.052,283.623 63.652 C 288.187 58.153,281.928 53.333,270.224 53.333 L 263.030 53.333 263.030 66.061 M299.394 66.061 L 299.394 78.788 303.127 78.788 C 306.616 78.788,306.809 78.559,306.086 75.267 C 304.859 69.681,307.716 69.226,311.829 74.353 C 314.510 77.695,316.289 78.788,319.049 78.788 L 322.712 78.788 319.409 74.458 L 316.106 70.127 318.659 67.410 C 325.128 60.524,319.339 53.333,307.328 53.333 L 299.394 53.333 299.394 66.061 M344.666 54.787 C 343.120 56.840,334.545 76.234,334.545 77.678 C 334.545 79.864,340.523 78.783,341.818 76.364 C 342.824 74.484,344.356 73.939,348.641 73.939 C 353.147 73.939,354.283 74.387,354.800 76.364 C 355.330 78.389,362.424 80.256,362.424 78.370 C 362.424 68.870,348.243 50.038,344.666 54.787 M169.394 61.613 C 171.955 64.792,171.234 70.034,167.938 72.194 C 164.357 74.540,160.643 73.623,158.117 69.769 C 153.391 62.555,163.981 54.896,169.394 61.613 M313.195 60.035 C 315.843 62.683,314.298 65.455,310.173 65.455 C 308.245 65.455,306.667 64.954,306.667 64.342 C 306.667 63.729,306.354 62.413,305.972 61.417 C 305.357 59.815,306.554 59.000,310.519 58.322 C 310.972 58.245,312.176 59.016,313.195 60.035 M277.576 61.212 C 277.576 62.482,276.296 63.030,273.333 63.030 C 270.370 63.030,269.091 62.482,269.091 61.212 C 269.091 59.942,270.370 59.394,273.333 59.394 C 276.296 59.394,277.576 59.942,277.576 61.212 M350.333 64.927 C 351.925 69.115,351.936 69.091,348.485 69.091 C 345.247 69.091,345.086 68.770,346.219 64.545 C 347.186 60.935,348.875 61.091,350.333 64.927 M278.396 69.819 C 279.261 72.072,276.908 73.894,273.102 73.921 C 270.041 73.942,268.578 72.177,269.552 69.639 C 270.488 67.198,277.445 67.340,278.396 69.819 M55.315 76.452 C 46.723 83.210,52.178 94.567,64.633 95.851 C 73.732 96.790,74.298 96.343,74.796 87.816 C 75.487 75.973,64.254 69.420,55.315 76.452 M81.763 76.915 C 74.574 84.104,79.706 95.758,90.060 95.758 C 96.595 95.758,99.394 93.094,99.394 86.874 L 99.394 82.424 93.851 82.424 C 87.825 82.424,86.158 86.245,91.831 87.054 C 96.407 87.707,95.117 90.909,90.277 90.909 C 84.878 90.909,82.375 86.762,84.698 81.664 C 85.994 78.821,86.657 78.549,90.906 79.119 C 96.644 79.888,99.897 77.367,95.916 75.236 C 91.552 72.901,85.000 73.678,81.763 76.915 M67.636 80.242 C 68.436 81.042,69.091 83.115,69.091 84.848 C 69.091 91.327,60.587 93.642,57.961 87.879 C 55.021 81.426,62.733 75.339,67.636 80.242 M112.305 98.533 L 108.851 112.727 94.729 112.862 L 80.606 112.996 94.545 116.446 L 108.485 119.895 112.466 115.946 L 116.448 111.997 116.103 98.168 L 115.758 84.339 112.305 98.533 M156.020 90.638 C 145.364 97.235,150.757 113.939,163.544 113.939 C 171.865 113.939,174.545 111.544,174.545 104.107 L 174.545 98.049 168.788 98.418 C 161.960 98.857,160.041 103.292,166.364 104.020 C 170.259 104.468,170.671 106.060,167.352 107.836 C 161.970 110.717,157.576 107.739,157.576 101.212 C 157.576 94.608,161.969 91.707,167.494 94.664 C 169.440 95.705,170.398 95.576,171.904 94.070 C 176.583 89.391,162.832 86.421,156.020 90.638 M196.442 91.212 C 195.851 92.712,193.410 98.197,191.017 103.400 C 185.802 114.743,185.867 113.939,190.162 113.939 C 192.637 113.939,193.842 113.232,194.291 111.515 C 194.808 109.536,195.944 109.091,200.482 109.091 C 204.727 109.091,206.398 109.664,207.554 111.515 C 208.449 112.948,210.381 113.939,212.279 113.939 L 215.490 113.939 209.938 101.212 C 203.945 87.474,199.276 84.014,196.442 91.212 M229.091 101.212 L 229.091 113.939 238.872 113.939 C 248.322 113.939,248.640 113.847,248.266 111.212 C 247.929 108.836,247.059 108.438,241.519 108.119 C 235.447 107.769,235.169 107.605,235.377 104.482 C 236.145 92.948,235.237 88.485,232.121 88.485 L 229.091 88.485 229.091 101.212 M261.818 101.212 L 261.818 114.100 265.152 113.717 C 268.211 113.365,268.452 112.960,268.089 108.788 L 267.693 104.242 272.634 104.242 C 277.053 104.242,277.576 104.553,277.576 107.174 C 277.576 111.943,278.866 113.939,281.948 113.939 C 284.823 113.939,284.848 113.828,284.848 101.212 C 284.848 88.528,284.838 88.485,281.891 88.485 C 279.349 88.485,278.881 89.123,278.558 93.030 C 278.192 97.458,278.045 97.586,272.931 97.953 L 267.680 98.331 268.083 93.711 C 268.453 89.455,268.222 89.061,265.152 88.707 L 261.818 88.324 261.818 101.212 M302.847 91.932 C 293.632 100.166,299.885 113.939,312.840 113.939 C 321.272 113.939,326.061 109.410,326.061 101.434 C 326.061 89.442,312.051 83.708,302.847 91.932 M317.025 96.309 C 322.016 101.300,317.660 110.358,311.192 108.438 C 302.679 105.910,304.141 94.317,313.085 93.429 C 313.616 93.376,315.388 94.672,317.025 96.309 M202.901 98.887 C 204.236 102.367,203.670 104.242,201.284 104.242 C 198.238 104.242,197.618 103.065,198.891 99.697 C 200.094 96.515,201.854 96.160,202.901 98.887 " stroke="none" fill="#000000" fill-rule="evenodd"></path></g></svg>